<?xml version="1.0" encoding="UTF-8"?>
<!DOCTYPE svg PUBLIC "-//W3C//DTD SVG 1.1//EN" "http://www.w3.org/Graphics/SVG/1.1/DTD/svg11.dtd">
<svg version="1.2" width="179.58mm" height="119.63mm" viewBox="0 0 17958 11963" preserveAspectRatio="xMidYMid" fill-rule="evenodd" stroke-width="28.222" stroke-linejoin="round" xmlns="http://www.w3.org/2000/svg" xmlns:ooo="http://xml.openoffice.org/svg/export" xmlns:xlink="http://www.w3.org/1999/xlink" xmlns:presentation="http://sun.com/xmlns/staroffice/presentation" xmlns:smil="http://www.w3.org/2001/SMIL20/" xmlns:anim="urn:oasis:names:tc:opendocument:xmlns:animation:1.0" xml:space="preserve">
 <defs class="ClipPathGroup">
  <clipPath id="presentation_clip_path" clipPathUnits="userSpaceOnUse">
   <rect x="0" y="0" width="17958" height="11963"/>
  </clipPath>
  <clipPath id="presentation_clip_path_shrink" clipPathUnits="userSpaceOnUse">
   <rect x="17" y="11" width="17923" height="11940"/>
  </clipPath>
 </defs>
 <defs class="TextShapeIndex">
  <g ooo:slide="id1" ooo:id-list="id3 id4 id5 id6 id7 id8 id9 id10 id11 id12 id13 id14 id15 id16 id17 id18 id19 id20"/>
 </defs>
 <defs class="EmbeddedBulletChars">
  <g id="bullet-char-template-57356" transform="scale(0.00048828125,-0.00048828125)">
   <path d="M 580,1141 L 1163,571 580,0 -4,571 580,1141 Z"/>
  </g>
  <g id="bullet-char-template-57354" transform="scale(0.00048828125,-0.00048828125)">
   <path d="M 8,1128 L 1137,1128 1137,0 8,0 8,1128 Z"/>
  </g>
  <g id="bullet-char-template-10146" transform="scale(0.00048828125,-0.00048828125)">
   <path d="M 174,0 L 602,739 174,1481 1456,739 174,0 Z M 1358,739 L 309,1346 659,739 1358,739 Z"/>
  </g>
  <g id="bullet-char-template-10132" transform="scale(0.00048828125,-0.00048828125)">
   <path d="M 2015,739 L 1276,0 717,0 1260,543 174,543 174,936 1260,936 717,1481 1274,1481 2015,739 Z"/>
  </g>
  <g id="bullet-char-template-10007" transform="scale(0.00048828125,-0.00048828125)">
   <path d="M 0,-2 C -7,14 -16,27 -25,37 L 356,567 C 262,823 215,952 215,954 215,979 228,992 255,992 264,992 276,990 289,987 310,991 331,999 354,1012 L 381,999 492,748 772,1049 836,1024 860,1049 C 881,1039 901,1025 922,1006 886,937 835,863 770,784 769,783 710,716 594,584 L 774,223 C 774,196 753,168 711,139 L 727,119 C 717,90 699,76 672,76 641,76 570,178 457,381 L 164,-76 C 142,-110 111,-127 72,-127 30,-127 9,-110 8,-76 1,-67 -2,-52 -2,-32 -2,-23 -1,-13 0,-2 Z"/>
  </g>
  <g id="bullet-char-template-10004" transform="scale(0.00048828125,-0.00048828125)">
   <path d="M 285,-33 C 182,-33 111,30 74,156 52,228 41,333 41,471 41,549 55,616 82,672 116,743 169,778 240,778 293,778 328,747 346,684 L 369,508 C 377,444 397,411 428,410 L 1163,1116 C 1174,1127 1196,1133 1229,1133 1271,1133 1292,1118 1292,1087 L 1292,965 C 1292,929 1282,901 1262,881 L 442,47 C 390,-6 338,-33 285,-33 Z"/>
  </g>
  <g id="bullet-char-template-9679" transform="scale(0.00048828125,-0.00048828125)">
   <path d="M 813,0 C 632,0 489,54 383,161 276,268 223,411 223,592 223,773 276,916 383,1023 489,1130 632,1184 813,1184 992,1184 1136,1130 1245,1023 1353,916 1407,772 1407,592 1407,412 1353,268 1245,161 1136,54 992,0 813,0 Z"/>
  </g>
  <g id="bullet-char-template-8226" transform="scale(0.00048828125,-0.00048828125)">
   <path d="M 346,457 C 273,457 209,483 155,535 101,586 74,649 74,723 74,796 101,859 155,911 209,963 273,989 346,989 419,989 480,963 531,910 582,859 608,796 608,723 608,648 583,586 532,535 482,483 420,457 346,457 Z"/>
  </g>
  <g id="bullet-char-template-8211" transform="scale(0.00048828125,-0.00048828125)">
   <path d="M -4,459 L 1135,459 1135,606 -4,606 -4,459 Z"/>
  </g>
  <g id="bullet-char-template-61548" transform="scale(0.00048828125,-0.00048828125)">
   <path d="M 173,740 C 173,903 231,1043 346,1159 462,1274 601,1332 765,1332 928,1332 1067,1274 1183,1159 1299,1043 1357,903 1357,740 1357,577 1299,437 1183,322 1067,206 928,148 765,148 601,148 462,206 346,322 231,437 173,577 173,740 Z"/>
  </g>
 </defs>
 <g>
  <g id="id2" class="Master_Slide">
   <g id="bg-id2" class="Background"/>
   <g id="bo-id2" class="BackgroundObjects"/>
  </g>
 </g>
 <g class="SlideGroup">
  <g>
   <g id="container-id1">
    <g id="id1" class="Slide" clip-path="url(#presentation_clip_path)">
     <g class="Page">
      <g class="com.sun.star.drawing.CustomShape">
       <g id="id3">
        <rect class="BoundingBox" stroke="none" fill="none" x="0" y="-1" width="17959" height="11964"/>
        <path fill="rgb(255,255,255)" stroke="none" d="M 8979,11962 L 0,11962 0,-1 17958,-1 17958,11962 8979,11962 Z"/>
       </g>
      </g>
      <g class="Group">
       <g class="com.sun.star.drawing.PolyPolygonShape">
        <g id="id4">
         <rect class="BoundingBox" stroke="none" fill="none" x="6088" y="723" width="5745" height="3998"/>
         <path fill="rgb(255,255,255)" stroke="none" d="M 11654,4541 L 8992,901 6266,4541 11654,4541 Z"/>
         <path fill="none" stroke="rgb(0,0,0)" stroke-width="356" stroke-linejoin="round" d="M 11654,4541 L 8992,901 6266,4541 11654,4541 Z"/>
        </g>
       </g>
       <g class="com.sun.star.drawing.CustomShape">
        <g id="id5">
         <rect class="BoundingBox" stroke="none" fill="none" x="6266" y="1139" width="5389" height="4311"/>
         <path fill="rgb(255,255,255)" stroke="none" d="M 8960,5449 L 6266,5449 6266,1139 11654,1139 11654,5449 8960,5449 Z"/>
        </g>
       </g>
       <g class="com.sun.star.drawing.PolyPolygonShape">
        <g id="id6">
         <rect class="BoundingBox" stroke="none" fill="none" x="1181" y="5686" width="15597" height="5554"/>
         <path fill="rgb(0,0,0)" stroke="none" d="M 1384,11061 L 16599,11061 14033,7700 13530,7616 13132,7361 12878,7062 12746,6736 12726,6176 12731,5976 12690,5864 12573,6078 11141,8328 10408,7146 9131,9118 7120,5925 5584,8331 4589,6783 1359,11049 1384,11061 Z"/>
         <path fill="none" stroke="rgb(0,0,0)" stroke-width="356" stroke-linejoin="round" d="M 1384,11061 L 16599,11061 14033,7700 13530,7616 13132,7361 12878,7062 12746,6736 12726,6176 12731,5976 12690,5864 12573,6078 11141,8328 10408,7146 9131,9118 7120,5925 5584,8331 4589,6783 1359,11049 1384,11061 Z"/>
        </g>
       </g>
       <g class="com.sun.star.drawing.LineShape">
        <g id="id7">
         <rect class="BoundingBox" stroke="none" fill="none" x="8813" y="731" width="7966" height="10509"/>
         <path fill="none" stroke="rgb(0,0,0)" stroke-width="356" stroke-linejoin="round" d="M 16599,11061 L 8991,909"/>
        </g>
       </g>
       <g class="com.sun.star.drawing.LineShape">
        <g id="id8">
         <rect class="BoundingBox" stroke="none" fill="none" x="1190" y="10883" width="15572" height="357"/>
         <path fill="none" stroke="rgb(0,0,0)" stroke-width="356" stroke-linejoin="round" d="M 16582,11061 L 1369,11061"/>
        </g>
       </g>
       <g class="com.sun.star.drawing.CustomShape">
        <g id="id9">
         <rect class="BoundingBox" stroke="none" fill="none" x="12546" y="4938" width="2895" height="2896"/>
         <path fill="rgb(255,255,255)" stroke="none" d="M 15262,6386 C 15262,6608 15203,6827 15092,7020 14981,7213 14820,7373 14628,7485 14435,7596 14216,7655 13993,7655 13770,7655 13551,7596 13359,7485 13166,7373 13005,7213 12894,7020 12783,6827 12724,6608 12724,6386 12724,6163 12783,5944 12894,5751 13005,5558 13166,5398 13359,5286 13551,5175 13770,5116 13993,5116 14216,5116 14435,5175 14628,5286 14820,5398 14981,5558 15092,5751 15203,5944 15262,6163 15262,6385 L 15262,6386 Z"/>
         <path fill="none" stroke="rgb(0,0,0)" stroke-width="356" stroke-linejoin="round" d="M 15262,6386 C 15262,6608 15203,6827 15092,7020 14981,7213 14820,7373 14628,7485 14435,7596 14216,7655 13993,7655 13770,7655 13551,7596 13359,7485 13166,7373 13005,7213 12894,7020 12783,6827 12724,6608 12724,6386 12724,6163 12783,5944 12894,5751 13005,5558 13166,5398 13359,5286 13551,5175 13770,5116 13993,5116 14216,5116 14435,5175 14628,5286 14820,5398 14981,5558 15092,5751 15203,5944 15262,6163 15262,6385 L 15262,6386 Z"/>
        </g>
       </g>
       <g class="com.sun.star.drawing.LineShape">
        <g id="id10">
         <rect class="BoundingBox" stroke="none" fill="none" x="4410" y="6605" width="1349" height="1931"/>
         <path fill="none" stroke="rgb(0,0,0)" stroke-width="356" stroke-linejoin="round" d="M 5580,8356 L 4589,6783"/>
        </g>
       </g>
       <g class="com.sun.star.drawing.LineShape">
        <g id="id11">
         <rect class="BoundingBox" stroke="none" fill="none" x="8962" y="6948" width="1626" height="2388"/>
         <path fill="none" stroke="rgb(0,0,0)" stroke-width="356" stroke-linejoin="round" d="M 9140,9157 L 10408,7126"/>
        </g>
       </g>
       <g class="com.sun.star.drawing.LineShape">
        <g id="id12">
         <rect class="BoundingBox" stroke="none" fill="none" x="6933" y="5729" width="2387" height="3607"/>
         <path fill="none" stroke="rgb(0,0,0)" stroke-width="356" stroke-linejoin="round" d="M 9140,9157 L 7112,5907"/>
        </g>
       </g>
       <g class="com.sun.star.drawing.LineShape">
        <g id="id13">
         <rect class="BoundingBox" stroke="none" fill="none" x="5420" y="5729" width="1880" height="2794"/>
         <path fill="none" stroke="rgb(0,0,0)" stroke-width="356" stroke-linejoin="round" d="M 5599,8343 L 7120,5907"/>
        </g>
       </g>
       <g class="com.sun.star.drawing.LineShape">
        <g id="id14">
         <rect class="BoundingBox" stroke="none" fill="none" x="10810" y="1930" width="2387" height="3048"/>
         <path fill="none" stroke="rgb(0,0,0)" stroke-width="356" stroke-linejoin="round" d="M 13017,4798 L 10988,2108"/>
        </g>
       </g>
       <g class="com.sun.star.drawing.LineShape">
        <g id="id15">
         <rect class="BoundingBox" stroke="none" fill="none" x="12208" y="2330" width="2386" height="3047"/>
         <path fill="none" stroke="rgb(0,0,0)" stroke-width="356" stroke-linejoin="round" d="M 14415,5198 L 12386,2508"/>
        </g>
       </g>
       <g class="com.sun.star.drawing.LineShape">
        <g id="id16">
         <rect class="BoundingBox" stroke="none" fill="none" x="10981" y="5709" width="1879" height="2794"/>
         <path fill="none" stroke="rgb(0,0,0)" stroke-width="356" stroke-linejoin="round" d="M 11159,8323 L 12681,5887"/>
        </g>
       </g>
       <g class="com.sun.star.drawing.LineShape">
        <g id="id17">
         <rect class="BoundingBox" stroke="none" fill="none" x="10213" y="6928" width="1119" height="1577"/>
         <path fill="none" stroke="rgb(0,0,0)" stroke-width="356" stroke-linejoin="round" d="M 11152,8325 L 10391,7106"/>
        </g>
       </g>
       <g class="com.sun.star.drawing.CustomShape">
        <g id="id18">
         <rect class="BoundingBox" stroke="none" fill="none" x="15671" y="5127" width="816" height="815"/>
         <path fill="rgb(255,255,255)" stroke="none" d="M 16308,5534 C 16308,5574 16297,5614 16277,5649 16257,5683 16228,5712 16194,5732 16159,5752 16119,5763 16079,5763 16039,5763 15999,5752 15965,5732 15930,5712 15901,5683 15881,5649 15861,5614 15850,5574 15850,5534 15850,5494 15861,5454 15881,5420 15901,5385 15930,5356 15965,5336 15999,5316 16039,5305 16079,5305 16119,5305 16159,5316 16194,5336 16228,5356 16257,5385 16277,5420 16297,5454 16308,5494 16308,5534 L 16308,5534 Z"/>
         <path fill="none" stroke="rgb(0,0,0)" stroke-width="356" stroke-linejoin="round" d="M 16308,5534 C 16308,5574 16297,5614 16277,5649 16257,5683 16228,5712 16194,5732 16159,5752 16119,5763 16079,5763 16039,5763 15999,5752 15965,5732 15930,5712 15901,5683 15881,5649 15861,5614 15850,5574 15850,5534 15850,5494 15861,5454 15881,5420 15901,5385 15930,5356 15965,5336 15999,5316 16039,5305 16079,5305 16119,5305 16159,5316 16194,5336 16228,5356 16257,5385 16277,5420 16297,5454 16308,5494 16308,5534 Z"/>
        </g>
       </g>
       <g class="com.sun.star.drawing.CustomShape">
        <g id="id19">
         <rect class="BoundingBox" stroke="none" fill="none" x="14746" y="4139" width="612" height="613"/>
         <path fill="rgb(255,255,255)" stroke="none" d="M 15179,4445 C 15179,4467 15173,4490 15162,4509 15151,4528 15135,4545 15115,4556 15096,4567 15074,4573 15052,4573 15029,4573 15007,4567 14988,4556 14968,4545 14952,4528 14941,4509 14930,4490 14924,4467 14924,4445 14924,4423 14930,4400 14941,4381 14952,4362 14968,4345 14988,4334 15007,4323 15029,4317 15052,4317 15074,4317 15096,4323 15115,4334 15135,4345 15151,4362 15162,4381 15173,4400 15179,4423 15179,4445 L 15179,4445 Z"/>
         <path fill="none" stroke="rgb(0,0,0)" stroke-width="356" stroke-linejoin="round" d="M 15179,4445 C 15179,4467 15173,4490 15162,4509 15151,4528 15135,4545 15115,4556 15096,4567 15074,4573 15052,4573 15029,4573 15007,4567 14988,4556 14968,4545 14952,4528 14941,4509 14930,4490 14924,4467 14924,4445 14924,4423 14930,4400 14941,4381 14952,4362 14968,4345 14988,4334 15007,4323 15029,4317 15052,4317 15074,4317 15096,4323 15115,4334 15135,4345 15151,4362 15162,4381 15173,4400 15179,4423 15179,4445 Z"/>
        </g>
       </g>
       <g class="com.sun.star.drawing.LineShape">
        <g id="id20">
         <rect class="BoundingBox" stroke="none" fill="none" x="1205" y="731" width="7966" height="10509"/>
         <path fill="none" stroke="rgb(0,0,0)" stroke-width="356" stroke-linejoin="round" d="M 1384,11061 L 8991,909"/>
        </g>
       </g>
      </g>
     </g>
    </g>
   </g>
  </g>
 </g>
</svg>